<svg xmlns="http://www.w3.org/2000/svg" viewBox="0 0 314.5 358.72"><defs><style>.cls-1{fill:#5865f2;}.cls-2{fill:#4b59f2;}.cls-3{fill:#3543de;}.cls-4{fill:#fff4b3;}.cls-5{fill:#29cc7a;}.cls-6{fill:#8cd9ff;}.cls-7{fill:#bae8ff;}.cls-8{fill:#eb459f;}.cls-10,.cls-13,.cls-14,.cls-15,.cls-19,.cls-28,.cls-29,.cls-31,.cls-34,.cls-36,.cls-37,.cls-38,.cls-39,.cls-9{fill:none;}.cls-9{stroke:#d11583;}.cls-13,.cls-14,.cls-15,.cls-19,.cls-29,.cls-31,.cls-34,.cls-36,.cls-37,.cls-9{stroke-linecap:round;}.cls-10,.cls-14,.cls-15,.cls-19,.cls-28,.cls-38,.cls-9{stroke-miterlimit:10;}.cls-10,.cls-13,.cls-14,.cls-15,.cls-19,.cls-28,.cls-29,.cls-31,.cls-34,.cls-36,.cls-37,.cls-38,.cls-9{stroke-width:2px;}.cls-10,.cls-14{stroke:#fff;}.cls-11{fill:#912869;}.cls-12{fill:#611b46;}.cls-13,.cls-15{stroke:#000;}.cls-13,.cls-29,.cls-31,.cls-34,.cls-36,.cls-37{stroke-linejoin:round;}.cls-16{fill:#fff;}.cls-17{fill:#2835bd;}.cls-18{fill:#d11583;}.cls-19,.cls-36{stroke:#ffc619;}.cls-20{fill:#2a39d4;}.cls-21{fill:#ff78b9;}.cls-22{fill:#2331b5;}.cls-23{fill:#3442d9;}.cls-24{fill:#45aaf7;}.cls-25{fill:#3f99f2;}.cls-26{fill:#de3a93;}.cls-27{fill:#66bcff;}.cls-28{stroke:#2330bf;}.cls-29{stroke:#2467d4;}.cls-30{fill:#ffe75c;}.cls-31{stroke:#a3d7ff;}.cls-32{fill:#adb4ff;}.cls-33{fill:#15ad75;}.cls-34{stroke:#15ad75;}.cls-35{fill:#ffc619;}.cls-37{stroke:#bae8ff;}.cls-38{stroke:#5865f2;}</style></defs><g id="Layer_2" data-name="Layer 2"><g id="Layer_1-2" data-name="Layer 1"><rect class="cls-1" x="13.4" y="222.81" width="301.08" height="135.9"/><path class="cls-2" d="M314.48,222.81v17.74l-4.15.33-15.73,1.27-2.9.24-3.2.25L258.71,245l-6.31.51-1.43.12-1.77.14-35.11,2.83h0l-1,.08-3.2.26-36.1,2.91-3.2.25-30.06,2.43-6,.48-3.2.26-35.55,2.86-.55.05-3.06.25H92l-8.69.7-.6,0L55.9,261.39l-3.2.25-13.25,1.07L16.6,264.55l-3.2.26v-42Z" transform="translate(0 0)"/><path class="cls-3" d="M291.7,222.81h-3.2v135.9h3.2Z" transform="translate(0 0)"/><path class="cls-3" d="M252.4,222.81h-3.2v135.9h3.2Z" transform="translate(0 0)"/><path class="cls-3" d="M213.1,222.81h-3.2v135.9h3.2Z" transform="translate(0 0)"/><path class="cls-3" d="M173.8,222.81h-3.2v135.9h3.2Z" transform="translate(0 0)"/><path class="cls-3" d="M134.5,222.81h-3.2v135.9h3.2Z" transform="translate(0 0)"/><path class="cls-3" d="M95.2,222.81H92v135.9h3.2Z" transform="translate(0 0)"/><path class="cls-3" d="M55.9,222.81H52.7v135.9h3.2Z" transform="translate(0 0)"/><path class="cls-3" d="M16.6,222.81H13.4v135.9h3.2Z" transform="translate(0 0)"/><path class="cls-4" d="M131.6,97.11c-4.1-13.6-6.3-20.1,1.1-24.1s29.9-1.3,40.4,1.2,12,5.1,5.1,15.4Z" transform="translate(0 0)"/><path class="cls-5" d="M126.8,219.41c-1.6-40.4-.6-74,.7-91.9-6.7-4.4-9.8-7.8-11.1-9.7a2,2,0,0,1,.1-2.5c10.6-13.3,19.7-24.9,29.2-30.3s22.5-6.8,43.2,13.8a1.39,1.39,0,0,1-.1,1.8,59.76,59.76,0,0,1-5.2,4.6c4.2,7.5,10.3,18.9,10.3,18.9h4.8a11.61,11.61,0,0,1,11.6,11.6c.1,9.3-2.1,20.5-6.4,34.9,19.2,15.6,14.5,48.7,14.5,48.7Z" transform="translate(0 0)"/><path class="cls-6" d="M203.9,170.61c.6-2.1,1.2-4,1.7-6L190.5,173s-23.9-16.1-64-26.1c-.7,18.6-.8,43.8.3,72.5h91.6S223.1,186.21,203.9,170.61Z" transform="translate(0 0)"/><path class="cls-7" d="M207.7,174.31a33.21,33.21,0,0,0-3.8-3.7c.6-2.1,1.2-4,1.7-6L190.5,173s-23.9-16.1-64-26.1c-.1,2.3-.2,4.8-.2,7.3,30.7,12.7,47.2,34.5,49.1,65.2h22.7C202.1,201.81,205.3,186.41,207.7,174.31Z" transform="translate(0 0)"/><path d="M138.6,135.21h.4c.2-.2.4-.3.5-.6l8.7-28.1a1,1,0,0,0,.1-.38,1,1,0,0,0-.08-.38.9.9,0,0,0-.23-.32.86.86,0,0,0-.73-.21.93.93,0,0,0-.36.14.9.9,0,0,0-.27.28,1,1,0,0,0-.13.37l-8.4,27.2a65.1,65.1,0,0,1-10.4-5.6h-.2c0,.6-.1,1.3-.1,1.9a68.89,68.89,0,0,0,10.9,5.7Z" transform="translate(0 0)"/><path d="M175.8,90,140,92.61C180,100.21,181.7,101.31,175.8,90Z" transform="translate(0 0)"/><path class="cls-8" d="M195.6,194.81l-3.8-35.5a2.44,2.44,0,0,0-.87-1.61,2.48,2.48,0,0,0-1.73-.59h-3.8l-1.7-3.3a4.4,4.4,0,0,0-5.4-1.9,4.49,4.49,0,0,0-2.3,2.2c-7.5,16.1-11.2,42.6-11.9,47.6a1.14,1.14,0,0,0,.17.67,1.18,1.18,0,0,0,.53.43l21.6,6.9a.69.69,0,0,0,.76-.07.7.7,0,0,0,.24-.73l-.8-10.1,8-2.5a1.41,1.41,0,0,0,1-1.5Z" transform="translate(0 0)"/><path class="cls-9" d="M177.1,166.51,173.8,201" transform="translate(0 0)"/><path d="M166.85,116c1.39-.56,1.64-3.17.56-5.83s-3.07-4.37-4.45-3.81-1.63,3.17-.56,5.83S165.47,116.58,166.85,116Z" transform="translate(0 0)"/><path class="cls-10" d="M177.16,121.55c1.79-3.37,1.57-7-.48-8.06s-5.16.76-6.94,4.13-1.57,7,.48,8.06S175.38,124.92,177.16,121.55Z" transform="translate(0 0)"/><path class="cls-10" d="M191.89,121.57c1.78-3.37,1.57-7-.48-8.06s-5.16.76-6.94,4.13-1.57,7,.48,8.06S190.11,124.94,191.89,121.57Z" transform="translate(0 0)"/><path d="M181.77,115.54c.93-.37.84-2.75-.2-5.31s-2.62-4.34-3.54-4-.83,2.75.2,5.31S180.85,115.91,181.77,115.54Z" transform="translate(0 0)"/><path class="cls-11" d="M191.3,141.71a33.41,33.41,0,0,1-21.2-7.5c-6.2-5.1-3.7-5.7.2-5.8s22.6.6,28,1.4S204.7,141.31,191.3,141.71Z" transform="translate(0 0)"/><path class="cls-12" d="M191.3,141.71a33.41,33.41,0,0,1-21.2-7.5c-6.2-5.1-3.7-5.7.2-5.8s22.6.6,28,1.4S204.7,141.31,191.3,141.71Z" transform="translate(0 0)"/><path class="cls-13" d="M190.9,152.91l-.4-3.7a21.42,21.42,0,0,0,8.1-2.3" transform="translate(0 0)"/><path class="cls-8" d="M195,141.21c-5.4-5.2-12.7-9.1-26.2-8.2C180.4,143.71,192.5,141.91,195,141.21Z" transform="translate(0 0)"/><path class="cls-10" d="M177.8,118h6.1" transform="translate(0 0)"/><path class="cls-14" d="M168.6,119.21l-25.8-10.5a3.52,3.52,0,0,0-1.7-.22,3.57,3.57,0,0,0-1.61.59,3.51,3.51,0,0,0-1.15,1.27,3.58,3.58,0,0,0-.44,1.66h0a3.42,3.42,0,0,0,2.1,3.2l1.7.8" transform="translate(0 0)"/><path class="cls-15" d="M163.2,106.11a19.31,19.31,0,0,0,6-.8" transform="translate(0 0)"/><path class="cls-15" d="M178.2,106.11a8,8,0,0,0,3.7-.8" transform="translate(0 0)"/><path class="cls-4" d="M135,93.61c35.7-.5,47.8-4.5,58-8.2s9.2-6.6,1.4-6.3S159.9,89.61,135,93.61Z" transform="translate(0 0)"/><path class="cls-5" d="M126.2,157.41l-.2,9.8,4.9-1.9s26.1-10.9,32.3-12.4,12.1,1.4,21,4.8,6.6,6.5,3.8,9.5-2.7,2.8-17.4,2.8c-28.1,20.3-36.7,32.2-48.2,32.2-6.9,0-12.8-3.1-17.2-16.7S109,165.71,126.2,157.41Z" transform="translate(0 0)"/><path class="cls-16" d="M224.1,168.61l-15-18.1L183.5,176l18.1,15.1c-.2,1.7,0,3,.9,3.9,2.7,2.7,10.6-.8,17.7-7.8s10.5-15,7.8-17.7C227.1,168.61,225.8,168.41,224.1,168.61Z" transform="translate(0 0)"/><path class="cls-16" d="M199.67,166.69c7-7,11.2-14.25,9.33-16.12s-9.09,2.3-16.12,9.33-11.21,14.25-9.34,16.12S192.64,173.72,199.67,166.69Z" transform="translate(0 0)"/><path class="cls-7" d="M197.93,165c6.36-6.36,10.64-12.41,9.54-13.5s-7.14,3.18-13.5,9.54-10.64,12.42-9.55,13.51S191.56,171.34,197.93,165Z" transform="translate(0 0)"/><path class="cls-5" d="M222.7,161c4.3.6,6,4.5,4.3,9.7a3.42,3.42,0,0,1-1,1.44,3.49,3.49,0,0,1-1.55.77,3.39,3.39,0,0,1-1.73-.09,3.31,3.31,0,0,1-1.46-.92,6.29,6.29,0,0,1-.6-7.9Z" transform="translate(0 0)"/><path class="cls-5" d="M215.2,158c-.2,3.7-2.4,7.4-4,9.8a3.55,3.55,0,0,0-.55,2.27,3.62,3.62,0,0,0,.95,2.13l.8.7a2.62,2.62,0,0,0,.92.62,2.68,2.68,0,0,0,1.08.22,2.76,2.76,0,0,0,1.09-.22,2.68,2.68,0,0,0,.91-.62,20.51,20.51,0,0,0,6.1-10.3c1.2-5.4-2.7-9.2-9.5-7.4Z" transform="translate(0 0)"/><path class="cls-4" d="M135,93.61l12.2-1,29.3-5.8-7.3-7.2H134.3Z" transform="translate(0 0)"/><path class="cls-16" d="M194.1,130.51l-7-.4c.8,4.2,2.8,6.4,4.5,5.7S193.9,131.41,194.1,130.51Z" transform="translate(0 0)"/><path class="cls-16" d="M172.5,129.61c.9,4.8,2.7,7.3,4.4,6.5s2.1-4.8,2.4-6.4Z" transform="translate(0 0)"/><path class="cls-17" d="M314.48,218.81v8H4a4,4,0,0,1,0-8Z" transform="translate(0 0)"/><path class="cls-8" d="M184.1,174a1,1,0,0,0,.4.5c.1,0,.1,0,.1.1a52.82,52.82,0,0,0,13.4-9.7v-.2l-3.9-3.8-3.2-3.3-4.2.2-8.2-3.1-.3.7C181.7,156.61,182.4,169.21,184.1,174Z" transform="translate(0 0)"/><path class="cls-18" d="M185.4,157.21a105.58,105.58,0,0,1,4.5,10.5,1,1,0,0,0,.8.6h.3a1,1,0,0,0,.49-.44,1,1,0,0,0,.11-.66c-.1-.3-2.3-6.1-4.3-10Z" transform="translate(0 0)"/><path class="cls-18" d="M186.6,199h-.2l-7.7,2.3a1,1,0,0,0-.6.6,1,1,0,0,0,0,.49,1,1,0,0,0,.26.41l6.8,5.9a.45.45,0,0,0,.2.23.53.53,0,0,0,.3.07,1,1,0,0,0,.38-.07.9.9,0,0,0,.5-.54.9.9,0,0,0,0-.36.89.89,0,0,0-.33-.63l-5.6-4.9,6-1.8Z" transform="translate(0 0)"/><path class="cls-13" d="M125.7,166.91l-14.1,6.7" transform="translate(0 0)"/><path class="cls-19" d="M180.6,82.11A449.37,449.37,0,0,1,133.8,92" transform="translate(0 0)"/><path class="cls-7" d="M193.1,177.91l10.8,9.9a2.12,2.12,0,0,0,2.5.2,2,2,0,0,0,.7-2.37,1.94,1.94,0,0,0-.5-.73l-10.5-10.1a2.07,2.07,0,0,0-1.15-.53,2.16,2.16,0,0,0-1.25.23l-.3.2a2,2,0,0,0-.66.65,1.91,1.91,0,0,0-.29.87,2.06,2.06,0,0,0,.12.92A2.13,2.13,0,0,0,193.1,177.91Z" transform="translate(0 0)"/><path class="cls-13" d="M220.2,169.81a16.8,16.8,0,0,0,3.3-8.3" transform="translate(0 0)"/><path class="cls-20" d="M308.89,31.54a8.2,8.2,0,1,0-9.67,6.14A8.11,8.11,0,0,0,308.89,31.54Z" transform="translate(0 0)"/><path class="cls-21" d="M314.47,19.35h0v86.84a49.46,49.46,0,0,1-15-4.32h0c-10.91-5.19-19.37-14.35-22.75-26.2-4.8-16.87,2-34.55,15.95-45.83a52.38,52.38,0,0,1,11.74-7.17,54.62,54.62,0,0,1,7.12-2.57C312.51,19.81,313.49,19.56,314.47,19.35Z" transform="translate(0 0)"/><path class="cls-16" d="M289.5,57.51c0,9.6,4.6,18.1,10.3,19s7.1-4.1,7.3-13.4c0-2.4.1-4.8.3-7.3.6-8.6-2.5-13.3-7.6-14.1S289.5,47.91,289.5,57.51Z" transform="translate(0 0)"/><path class="cls-22" d="M314.48,88V197.22a12.24,12.24,0,0,1-11.78-1.91,9.45,9.45,0,0,1-2.55-3.29,0,0,0,0,1,0,0v0a18,18,0,0,1-1.4-4.15,42.3,42.3,0,0,1-.79-5.29v0a1.49,1.49,0,0,1,0-.21.37.37,0,0,1,0-.11,0,0,0,0,1,0,0c-.24-2.69-.35-5.66-.45-8.84l0-1.17c0-.38,0-.76,0-1.15-.23-7.7-.55-16.45-2.49-25.32-4.14-18.88,7.26-28.69,10.48-31,.32-.24.55-.4.69-.49l.1-.06,0,0-.94-.34-.16-.06a3.79,3.79,0,0,1-2-5.5l.4-.7-1.37-1.92-2.21-3.1-.43-.62h0l-1.67-2.35A56,56,0,0,1,314.48,88Z" transform="translate(0 0)"/><path d="M314.48,153.51v21.82l-3-2-2.14-1.46-4.59-3.11-.79-.54.2-.28.25-.34,1.3-1.79C307.85,162.89,311.47,157.85,314.48,153.51Z" transform="translate(0 0)"/><path class="cls-23" d="M299.1,101.31a78.89,78.89,0,0,1,15.38-8.67v5.61a73.89,73.89,0,0,0-9.91,5.67c-.79.52-1.61,1.08-2.44,1.67l0,0-2.18-3.12-.43-.62Z" transform="translate(0 0)"/><path class="cls-22" d="M314.48,198.12c0-.31,0-.62,0-.91h0V161.55l-.16.1-.49.3-.3.19-.63.39-.09.05c-.26.18-.52.34-.78.5l-2.21,1.4h0c-3.19,2-5.81,3.72-5.81,3.72l.2-.28.25-.34,1.3-1.79c2.1-2.91,5.72-8,8.73-12.29V117a17.26,17.26,0,0,0-8.28-2.89l0,0-.1.06c-9.4,5.23-13.31,10-19.13,20-2.41,4.15-5.16,9.21-8.77,15.59l-.77,1.37c-.67,1.18-1.33,2.37-2,3.56l-1,1.89c-11.1,21.22-16.61,42.65-3.72,51.95,6.25,4.51,12.4,5.61,19.53,4.46a66.8,66.8,0,0,0,12.91-3.77l.55-.21.41-.16c3.21-1.26,6.66-2.74,10.38-4.38Z" transform="translate(0 0)"/><path class="cls-23" d="M311.52,173.32c.68,2.44,1.67,5.44,3,9.21v5.17q-.39-1-.78-2.19c-2-5.86-3.51-10.25-4.32-13.65a19.67,19.67,0,0,1-.68-5.05,3.07,3.07,0,0,1,1.11-2.32h0a2.6,2.6,0,0,1,.38-.27l.43-.28,1.44-.89,0,0C310.05,165.05,309.94,167.66,311.52,173.32Z" transform="translate(0 0)"/><path d="M314.48,160.37v2.36l-.12.07-.26.16-.64.4-.16.09-.69.43-.46.29-1,.61-.4.24-2,1.25-1.91,1.19-2.06,1.29-7.06,4.43-.27.17-1,.65-.11.07-.23.15-.06,0-4,2.51a1,1,0,0,1-.53.15,1,1,0,0,1-.85-.47,1,1,0,0,1,.32-1.38l4.18-2.62,0,0,.2-.11.17-.11.06,0,1.06-.66.72-.45,8.36-5.23,0,0,4.31-2.69,1-.62.44-.27.75-.47.12-.07.62-.38.29-.18.44-.27.18-.11Z" transform="translate(0 0)"/><path d="M292.5,57.61c-.3,4.2,1.1,7.7,3.1,7.9s3-1.4,3.1-5.3a26.9,26.9,0,0,1,.6-4.9c.7-3.5-.8-4.8-2.5-4.9S292.8,53.51,292.5,57.61Z" transform="translate(0 0)"/><path class="cls-20" d="M313,.41A10.07,10.07,0,0,1,314.48,0V19.35h0c-2.88-.62-6.5,0-11.84,2.7h0l-.52.26a6.17,6.17,0,0,1-.55-.43c-4.14-3.64-1.42-11.49,11.35-7.27-5.25-6.79-4.36-11.69-1-13.67a3.75,3.75,0,0,1,.44-.24A5.79,5.79,0,0,1,313,.41Z" transform="translate(0 0)"/><path d="M313.3.41a5.26,5.26,0,0,1,1.18,1V4.28c-1-1.61-2-2.67-2.88-2.77l-.7.2a6,6,0,0,1,1-.77,3.75,3.75,0,0,1,.44-.24A5.79,5.79,0,0,1,313,.41Z" transform="translate(0 0)"/><path d="M314.48,113.11v2H306.2a1,1,0,0,1-.82-.43s0-.05,0-.08a.91.91,0,0,1-.14-.49,1,1,0,0,1,.06-.34,1,1,0,0,1,.94-.66Z" transform="translate(0 0)"/><path class="cls-16" d="M300.9,53.11l-5.8,2.8,8.1,3.7Z" transform="translate(0 0)"/><path class="cls-24" d="M220.6,358.71H154.1v-14A13.91,13.91,0,0,1,158,335l6.6-6.4a8.53,8.53,0,0,0,2.7-6.2v-16a14.2,14.2,0,0,1,11-13.8c10.7-2.7,21.8-3.2,30.9-1.4a14.29,14.29,0,0,1,11.4,14Z" transform="translate(0 0)"/><path class="cls-7" d="M171.2,331.91h.4a.87.87,0,0,0,.45-.09,1,1,0,0,0,.35-.31c3-5.8,3-14.8,3-24.4s.9-13.2,7.3-15.6l-3.4.7a6.08,6.08,0,0,0-4.1,3.2c-1.4,2.8-1.6,6.5-1.6,11.7,0,9.4,0,18.2-2.8,23.6a.83.83,0,0,0-.13.34.89.89,0,0,0,0,.36.84.84,0,0,0,.19.31A.85.85,0,0,0,171.2,331.91Z" transform="translate(0 0)"/><path class="cls-25" d="M220.6,305.21a14.31,14.31,0,0,0-11.5-14,70.89,70.89,0,0,0-16.2-.9c-12.8.9-10.9,9-10.9,20.8v10.1a18.85,18.85,0,0,1-2.6,9.6c-1.9,3.1-2.4,6.9-2.4,14.3v13.6h43.6Z" transform="translate(0 0)"/><path class="cls-3" d="M204.6,342.61c-.6-17.4-8.5-32.6-16.5-47.1a1.9,1.9,0,0,1-.13-2,2,2,0,0,1,.72-.74,1.91,1.91,0,0,1,1-.26h2a2.61,2.61,0,0,1,1.19.35,2.65,2.65,0,0,1,.91.85c8.2,15.1,16.8,30.8,17.4,48.9.3,9.1-6.6,16.1-15.8,16.1h-6.6C198,358.71,204.9,351.71,204.6,342.61Z" transform="translate(0 0)"/><path class="cls-3" d="M223.4,342.61c-.6-17.4-8.6-32.6-16.5-47.1a1.9,1.9,0,0,1-.13-2,2,2,0,0,1,.72-.74,1.91,1.91,0,0,1,1-.26h2a2.38,2.38,0,0,1,2,1.2c8.3,15.1,16.8,30.8,17.5,48.9a15.43,15.43,0,0,1-4.39,11.49,15.36,15.36,0,0,1-11.41,4.61h-6.6a15.41,15.41,0,0,0,15.8-16.1Z" transform="translate(0 0)"/><path class="cls-26" d="M207.1,315.61l20.3,3.5c1.6,4.2,2.4,7,2.6,9.7s-2.4,4.2-6.4,5.8a26.72,26.72,0,0,0-7.8,5c-5.8,5.1-10.7,8.2-19.2,8.2-1.7,0-2.9.1-3.9-1a7.1,7.1,0,0,1-.5-8.8,15.81,15.81,0,0,1,3.7-3.6,24.45,24.45,0,0,0,11-17.7C207,316.21,207,315.91,207.1,315.61Z" transform="translate(0 0)"/><path d="M223.6,334.61a18.3,18.3,0,0,0,4.7-2.6c1.9-1.8,1.1-3.5-3-3.4s-8.4,3.3-17,8.6-21.4,10.6-11.7,10.6,13.4-3.1,19.2-8.2A26.72,26.72,0,0,1,223.6,334.61Z" transform="translate(0 0)"/><path class="cls-27" d="M204.9,309.51c-1.5.3-1.3,2-.5,3.7-1.6,3-.6,4.2,2.2,5.4a46.53,46.53,0,0,0,17.6,2.4c6.1-.6,5.7-2.6,5.1-4.6,2.1-1.8,1.8-3.9-.3-4.8S215.6,307.21,204.9,309.51Z" transform="translate(0 0)"/><path class="cls-16" d="M250,205.11H223.8V219.4H250Z" transform="translate(0 0)"/><path class="cls-27" d="M303.3,205.41a13.8,13.8,0,0,1-13.4,17.1H261.3L247.9,230v-.4c-6.1,0-9.6-2-6.9-24.4-1.2-6.3-6.8-31.1-9.9-49.6-2.8-16.9,3.5-23.1,20.9-32.9,7.4-22,26.6-20.7,30.3-7.5S298.2,184.51,303.3,205.41Z" transform="translate(0 0)"/><path class="cls-23" d="M249.6,237.11l-4.6.8a1.57,1.57,0,0,0-.62.27,1.59,1.59,0,0,0-.66,1.15,1.57,1.57,0,0,0,.08.68l1,2.5c-13.9.8-26,2-30.8,6.2s-4.8,10.6-7,29.7-5.8,30.5,0,33.1a37.22,37.22,0,0,0,18.7,2.8c6.4-.6,7-3.9,8.3-13.8s4.4-31.9,4.4-31.9h50.5c12.5,0,19.9-8.2,21.6-15.2,1.2-5-.4-16.8-3.3-30.8H261.3l-13.4,7.5,1,4.3Z" transform="translate(0 0)"/><path class="cls-28" d="M291.7,222.81c5,25,6,43.8-13,52.4" transform="translate(0 0)"/><path class="cls-29" d="M252.4,210.21s2.1,12.3,5,26.9c3.3,16.8,2.4,16.2-20.5,17.7-20.1,1.3-18.3.3-22.5,23.2-1.6,9-4.4,25.3-3.6,34.3,0,0-.9,5.3-.7,6.4" transform="translate(0 0)"/><path class="cls-13" d="M238.4,268.61c-11.1-1.7-16.5-11.7-16.5-11.7" transform="translate(0 0)"/><path class="cls-13" d="M238.4,268.61a20,20,0,0,1-9.2-12.3" transform="translate(0 0)"/><path class="cls-8" d="M303.3,205.41c-2.6-10.8-7.2-30.8-11.5-49.5l-22.4-1.7-17.3,12.2-10,13.4-5.1,6.9c1.8,8.6,3.3,15.6,3.9,18.6-2.7,22.4.8,24.4,6.9,24.4l17.7-7.5,41-2.9C305.5,214.81,304.4,210.11,303.3,205.41Z" transform="translate(0 0)"/><path d="M257.47,194.15c1.26-7.46.61-13.79-1.46-14.14s-4.77,5.41-6,12.87-.61,13.8,1.46,14.15S256.21,201.61,257.47,194.15Z" transform="translate(0 0)"/><path class="cls-18" d="M244.4,175.61c1-1.8,2.1-3.6,3.2-5.2,11.3-16.3,21.9-20.7,32.1-20.7h12.7a1.11,1.11,0,0,1,.54.14,1.18,1.18,0,0,1,.42.38,1.28,1.28,0,0,1,.2.52,1.33,1.33,0,0,1-.06.56l-1.7,4.6c-19.5,0-26.4-.6-42.6,16.4l-7.1,7.5Z" transform="translate(0 0)"/><path d="M306.5,219.31H273.4c-7.4,0-16.5-.4-25.6,10.4l1.1,4.7c5.3-5.1,10.2-7.3,20.8-7.3h38.4Z" transform="translate(0 0)"/><path class="cls-16" d="M249.2,172.91c-6.7,1.2-12,4.7-15,10.9a12.68,12.68,0,0,1-3.6,4.4l-18,13.1a9.92,9.92,0,0,0,5.8,18h7.5c15.6-8.7,22.8-14.6,26.5-18s7.8-9.5,7.1-16.5S256.8,171.51,249.2,172.91Z" transform="translate(0 0)"/><path class="cls-27" d="M254.8,121.21c-2.4-4-5.6-9.3-6.8-11.8s-4.1-1.9,0,9.3c-10-3.8-12.1-2.4-12.6-1s1.7,2.1,5.9,4.5,8.7,5.3,8.7,5.3Z" transform="translate(0 0)"/><path d="M265.2,121.51c1.7-2.1,2.3-4.4,1.3-5.2s-2.1-.4-3.6,1.6a24.06,24.06,0,0,1-2.1,2.3c-1.7,1.6-1.3,2.8-.5,3.5S263.5,123.61,265.2,121.51Z" transform="translate(0 0)"/><path class="cls-23" d="M282.2,115.31s-11.9-5.4-17-8.7-7.7-8.2-5.4-9.5,6.7,1.8,9.8,5.8c-.1-7.1,1.1-8.6,3-8.7s2.1,2.7,2.2,6.7.8,5.6,3.8,8.3A11.82,11.82,0,0,1,282.2,115.31Z" transform="translate(0 0)"/><path class="cls-16" d="M238.5,148.51c-2.8,0-5.2-2.4-3-6.6s9.4-8.4,12.9-10,5.1,0,5.2,1.2-.4,3-2.9,6.2S243.6,148.51,238.5,148.51Z" transform="translate(0 0)"/><path class="cls-6" d="M240.7,148.21l-1.7.3-2.4-8.2,1.4-1.5Z" transform="translate(0 0)"/><path class="cls-6" d="M246.9,143.81l-1.4,1.4-2.8-10.1,1.5-1Z" transform="translate(0 0)"/><path class="cls-6" d="M252.5,136.81l-1.3,1.8-2-7,1.7-.3Z" transform="translate(0 0)"/><path class="cls-13" d="M250.3,130.41a51,51,0,0,0,5.7,2.3" transform="translate(0 0)"/><path class="cls-13" d="M247.8,241.81l11,13.4" transform="translate(0 0)"/><path class="cls-23" d="M256.4,237.81h-3.9l-1.2-5.5-1.1-5.1a37.06,37.06,0,0,1,3.2-2.8l1.3,5.6Z" transform="translate(0 0)"/><path class="cls-23" d="M273.7,232.51h-3.9l-1.2-5.4-1.6-7.6h3.9l1.6,7.7Z" transform="translate(0 0)"/><path class="cls-23" d="M305.6,232.31h-3.9l-1.2-5.2-1.6-7.8h3.9l1.6,7.8Z" transform="translate(0 0)"/><path class="cls-16" d="M294.9,169.11a11.6,11.6,0,0,0-6.7-2.5c-5.2,0-8.1,5.1-9.1,10a3.47,3.47,0,0,1-1.2,2,3.54,3.54,0,0,1-2.2.8H275a3.41,3.41,0,0,1-2.22-1.47,3.33,3.33,0,0,1-.51-1.27,3.46,3.46,0,0,1,0-1.36c1.9-9.5,8.1-15.6,15.9-15.6a5.7,5.7,0,0,1,5.5,4.5Z" transform="translate(0 0)"/><path class="cls-22" d="M303.3,205.41a6.79,6.79,0,0,1-.87,5.29,6.82,6.82,0,0,1-4.43,3l-2.5.2c-5.7,0-11.6-3.4-16.2-9.3a3.59,3.59,0,0,1-.59-1.23,3.51,3.51,0,0,1-.07-1.37,3.51,3.51,0,0,1,1.36-2.3,3.32,3.32,0,0,1,1.23-.62,3.52,3.52,0,0,1,1.37-.09,3.57,3.57,0,0,1,1.3.47,3.44,3.44,0,0,1,1,.94c3.2,4.1,7.1,6.6,10.6,6.6s5.6-2,7.1-4.6C302.8,203.51,303.1,204.51,303.3,205.41Z" transform="translate(0 0)"/><path class="cls-1" d="M296.6,176.81a3.4,3.4,0,0,0-3.2,2.3l-4.2,11.3a4.89,4.89,0,0,0,2.1,5.8,3.53,3.53,0,0,0,1.43.49,3.33,3.33,0,0,0,1.5-.19,3.45,3.45,0,0,0,1.28-.81,3.39,3.39,0,0,0,.79-1.29l2.7-7.3C298.3,183.81,297.5,180.41,296.6,176.81Z" transform="translate(0 0)"/><path class="cls-30" d="M291.3,196.21a4.89,4.89,0,0,1-2.1-5.8l1.2-3.1a4,4,0,0,1,.93-1.44,3.9,3.9,0,0,1,1.44-.92,4,4,0,0,1,5.13,5.16l-1.6,4.3a3.39,3.39,0,0,1-.79,1.29,3.45,3.45,0,0,1-1.28.81,3.33,3.33,0,0,1-1.5.19A3.53,3.53,0,0,1,291.3,196.21Z" transform="translate(0 0)"/><path class="cls-31" d="M238.3,212.21a30.61,30.61,0,0,1-10.6,4.7" transform="translate(0 0)"/><path class="cls-32" d="M277,358.71H259.5c-10.7,0-20.6-8.6-22.1-19.2s5.3-16.2,16.8-18.7l2-.5a6.49,6.49,0,0,0,5.1-7.3,7.11,7.11,0,0,0-6.3-6.2l-2.9-.3c-12.4-1.3-20.6-8.6-22.1-19.2s5.9-18.7,16.3-18.7h17.5c10.7,0,20.6,8.6,22.1,19.2l7.4,52.2C294.7,350.31,287.4,358.71,277,358.71Z" transform="translate(0 0)"/><path class="cls-16" d="M297.3,358.71H279.8c-10.7,0-20.6-8.6-22.1-19.2a16.09,16.09,0,0,1,11.6-18,5.91,5.91,0,0,0,4.3-6.6l-.5-3.8a6.11,6.11,0,0,0-4.7-5c-9.1-1.9-16.8-9.6-18.1-18.8a16.58,16.58,0,0,1,16.3-18.7h17.5c10.7,0,20.6,8.6,22.1,19.2l7.4,52.2C315,350.31,307.7,358.71,297.3,358.71Z" transform="translate(0 0)"/><path class="cls-27" d="M292.9,286.21a3.41,3.41,0,0,1-.11,1.49,3.5,3.5,0,0,1-1.92,2.2,3.53,3.53,0,0,1-1.47.31H271a4.8,4.8,0,0,1-4.6-4v-.6a3.32,3.32,0,0,1,.06-1.47,3.34,3.34,0,0,1,1.89-2.17,3.42,3.42,0,0,1,1.45-.26h18.5a4.82,4.82,0,0,1,3,1.14,4.74,4.74,0,0,1,1.61,2.76Z" transform="translate(0 0)"/><path class="cls-27" d="M284.9,293.61a3.41,3.41,0,0,1-.06,1.49,3.33,3.33,0,0,1-.7,1.31,3.34,3.34,0,0,1-2.64,1.2H281a4.8,4.8,0,0,1-4.6-4l-2.2-15.4a3.43,3.43,0,0,1,.83-2.77,3.44,3.44,0,0,1,2.67-1.13h.5a4.82,4.82,0,0,1,3,1.14,4.74,4.74,0,0,1,1.61,2.76Z" transform="translate(0 0)"/><path class="cls-32" d="M287.2,316.81a1.58,1.58,0,0,1,0,.61,1.61,1.61,0,0,1-.29.55,1.37,1.37,0,0,1-.48.38,1.48,1.48,0,0,1-.59.16h-.3a2.1,2.1,0,0,1-1.9-1.7l-.9-6.4a1.44,1.44,0,0,1,.05-.62,1.39,1.39,0,0,1,.31-.54,1.49,1.49,0,0,1,.52-.35,1.32,1.32,0,0,1,.62-.09h.2a1.9,1.9,0,0,1,1.9,1.6Z" transform="translate(0 0)"/><path class="cls-27" d="M286.8,337a4.8,4.8,0,0,1-4.6-3.9v-.6a3.32,3.32,0,0,1,.06-1.47,3.34,3.34,0,0,1,1.89-2.17,3.42,3.42,0,0,1,1.45-.26h.5a4.81,4.81,0,0,1,4.6,3.8v.7a3.22,3.22,0,0,1-.11,1.48,3.36,3.36,0,0,1-.72,1.29A3.44,3.44,0,0,1,287.2,337Z" transform="translate(0 0)"/><path class="cls-21" d="M289.4,351.91h-.5a4.71,4.71,0,0,1-4.6-3.9v-.9a3.44,3.44,0,0,1,.18-1.42,3.34,3.34,0,0,1,.74-1.22,3.45,3.45,0,0,1,1.18-.81,3.34,3.34,0,0,1,1.4-.25h.5a4.81,4.81,0,0,1,4.6,3.8v.7a3.35,3.35,0,0,1-.07,1.51,3.43,3.43,0,0,1-1.94,2.22A3.46,3.46,0,0,1,289.4,351.91Z" transform="translate(0 0)"/><path class="cls-1" d="M287.3,337h-.5a4.8,4.8,0,0,1-4.6-3.9v-.6a3.32,3.32,0,0,1,.06-1.47,3.34,3.34,0,0,1,1.89-2.17,3.42,3.42,0,0,1,1.45-.26h.5a4.81,4.81,0,0,1,4.6,3.8v.7a3.37,3.37,0,0,1-.8,2.73,3.35,3.35,0,0,1-1.17.87A3.53,3.53,0,0,1,287.3,337Z" transform="translate(0 0)"/><path class="cls-27" d="M296.8,344.41a4.8,4.8,0,0,1-4.6-3.9v-.6a3.32,3.32,0,0,1,.06-1.47,3.34,3.34,0,0,1,1.89-2.17,3.42,3.42,0,0,1,1.45-.26h.5a4.81,4.81,0,0,1,4.6,3.8v.7a3.32,3.32,0,0,1-.06,1.47,3.34,3.34,0,0,1-1.89,2.17,3.42,3.42,0,0,1-1.45.26Z" transform="translate(0 0)"/><path class="cls-1" d="M297.3,344.41h-.5a4.8,4.8,0,0,1-4.6-3.9v-.6a3.32,3.32,0,0,1,.06-1.47,3.34,3.34,0,0,1,1.89-2.17,3.42,3.42,0,0,1,1.45-.26h.5a4.81,4.81,0,0,1,4.6,3.8v.7a3.32,3.32,0,0,1-.06,1.47,3.34,3.34,0,0,1-1.89,2.17A3.42,3.42,0,0,1,297.3,344.41Z" transform="translate(0 0)"/><path class="cls-21" d="M279.4,344.61h-.6a4.72,4.72,0,0,1-4.5-4v-.9a3.38,3.38,0,0,1,.13-1.41A3.31,3.31,0,0,1,277.7,336h.6a4.8,4.8,0,0,1,4.5,3.9v.6a3.26,3.26,0,0,1,0,1.52,3.32,3.32,0,0,1-.68,1.35,3.48,3.48,0,0,1-1.2.92A3.35,3.35,0,0,1,279.4,344.61Z" transform="translate(0 0)"/><path class="cls-5" d="M117.1,338.71l-9.7-5.4a355,355,0,0,1,25.1-36.1c-17.9,6.5-36.7,14.6-57.5,14.6H40.2c-2.1-4.3-2.7-8.7-2.7-15.3L80,281l16.1,3.3.5,4.6c15.4-3.9,31.3-8.4,42.8-11.1,14.5-3.4,19.4,3.9,11,16.1C134.2,317.51,117.1,338.71,117.1,338.71Z" transform="translate(0 0)"/><path class="cls-33" d="M49.8,292.51c0,8.5,0,14.5,4.1,17.9a5.45,5.45,0,0,0,3.6,1.4h4.2c-10.2-1.7-10.2-7.2-10.1-19.3v-.8c0-.1-.1-.2-.1-.3l-1.7.6Z" transform="translate(0 0)"/><path class="cls-34" d="M117.1,334.21c15.6-20.6,25.6-34.9,29.8-41.6s5.6-10.9-15.6-3.7-37.3,13.7-42,11.9-3-6.6-2.7-15.1" transform="translate(0 0)"/><path class="cls-30" d="M54.7,237.11a175.46,175.46,0,0,1-17.6-35.2,13.59,13.59,0,0,1,2.1-12.2c7.3-8.8,16.9-13.5,29.7-15.7a5.42,5.42,0,0,1,3.9,1.1c15.2,13.3,19.7,28.3,22.3,42.9a5,5,0,0,1-.43,2.46,5,5,0,0,1-1.57,1.94c-7.5,4.6-11.5,6-11.5,6l1.5,11.1Z" transform="translate(0 0)"/><path class="cls-30" d="M69.2,199.81a193,193,0,0,1,22.3,3.4l4.1,1.1a.89.89,0,0,1,.63.63.94.94,0,0,1,0,.47.9.9,0,0,1-.23.4l-.9.8,1.6,6.2a8.82,8.82,0,0,1-4.2,10l-3.7,2.1Z" transform="translate(0 0)"/><path class="cls-21" d="M72.41,207.18c1.9-1.33,1.52-5.16-.85-8.56s-5.83-5.07-7.74-3.74-1.52,5.15.85,8.55S70.5,208.51,72.41,207.18Z" transform="translate(0 0)"/><path d="M84.2,193.31c-1.2-1.1-2.5-1.4-3-.9s-.2,1.3.9,2.1l1.3,1.3c.9,1,1.6.8,2,.3S85.4,194.31,84.2,193.31Z" transform="translate(0 0)"/><path class="cls-30" d="M44.5,184.41c-1.6-16.1,0-21.5,3.4-26.2s5.4-3.3,4.8,2.9a90.1,90.1,0,0,0,.1,14.6,67.54,67.54,0,0,1,12.7-20.6,12.74,12.74,0,0,1,6.2-4.1c2.4-.6,3.7.8,3,3.1-1.2,3.9-4.1,10.1-11.9,21.2l.8,4.4Z" transform="translate(0 0)"/><path class="cls-22" d="M91.2,246.61c8.5,2.9,2.5,29.5,2.5,29.5l1.2.9a5.39,5.39,0,0,1,1.6,6.6l-.4.7c-5.9,0-9.8.5-17.8,6.2s-13.1,6-21.3,6H37.5v-6.6c-7.3-2.9-7.9-6.4-5.1-10.9,1.5-2.6,3.9-6.2,5.7-8.9a9.41,9.41,0,0,0,1.4-7.1c-1.6-8.6-.3-13.7-.3-13.7l21.2-5.7,26.9-1.1Z" transform="translate(0 0)"/><path d="M90.57,271.1c2.57-.67,3.47-5.68,2-11.18s-4.71-9.41-7.27-8.73-3.46,5.68-2,11.18S88,271.78,90.57,271.1Z" transform="translate(0 0)"/><path class="cls-16" d="M103.6,333.91c2.4-2.5,7.6-6.7,7.6-6.7,3.3,0,8.3.6,10.5,9.7l2.7,10.7c10.3,1.9,10.4,4.8,9,8.6v1.7a.79.79,0,0,1-.8.8H115.4Z" transform="translate(0 0)"/><path class="cls-21" d="M132.6,358.71a.79.79,0,0,0,.8-.8v-1.7c-6.8,0-11.8.7-14.3-3.7a154.55,154.55,0,0,1-7.1-16.4c-.9-2.6-2.8-5.7-5.7-4.8l-2.7,2.6,11.8,24.8Z" transform="translate(0 0)"/><path d="M125.3,358.71a10.62,10.62,0,0,1-9.1-4.9c-3.7-5.6-6-12.3-7.4-16.4s-5.9-5.7-6.3-.5,2.3,9.2,6.5,19.6a3.32,3.32,0,0,0,1.24,1.62,3.27,3.27,0,0,0,2,.58Z" transform="translate(0 0)"/><path class="cls-30" d="M91.2,246.61,107,252c1.6-22.1,8.3-28.4,16.1-46,5.6-12.5,8.2-18.2,9.3-20.4a2,2,0,0,1,1.9-1.2h.6a2.25,2.25,0,0,1,.89.18,2.45,2.45,0,0,1,.74.53,2.11,2.11,0,0,1,.46.79,2.13,2.13,0,0,1,.11.9,90.9,90.9,0,0,1-4.7,17.3c4.7-3.2,6.8-3.2,9,.1,5.4-2.8,7.4-2.9,9.3,1.3s1.6,5,.6,8.4-2.5,3.7-4.8,3.7c0,23.2-1.5,31.9-12.4,47.5-9.7,13.9-10.2,12.2-23.4,8-7.6-2.4-15.1-5.1-20-7a12.91,12.91,0,0,1-8.3-14.3C83.3,247.61,86.1,244.91,91.2,246.61Z" transform="translate(0 0)"/><path class="cls-16" d="M91.2,246.61a20.85,20.85,0,0,0,1.5-2,3.13,3.13,0,0,0,.54-1.24,3.28,3.28,0,0,0,0-1.36,3.17,3.17,0,0,0-.58-1.23,3.23,3.23,0,0,0-1-.87c-27.3-15-36.9-16.8-51.9-16.8-9.7,0-9.2,2.5-8.3,7.1-6.9,6.4-6.8,8.6-2,14.9s6.3,8.8,10.8,8.8,15,.1,24.2-4.6S78,242.21,91.2,246.61Z" transform="translate(0 0)"/><path d="M90.8,201.31c-11.1-1.9-22.4-3.1-22.5-3.1a1,1,0,0,0-.34,0,.66.66,0,0,0-.29.17.68.68,0,0,0-.2.27.75.75,0,0,0-.07.33.92.92,0,0,0,.16.64.89.89,0,0,0,.54.36c.2,0,12,1.2,23.4,3.2C91.3,202.61,91.1,202,90.8,201.31Z" transform="translate(0 0)"/><path class="cls-13" d="M68.5,197.71a22.82,22.82,0,0,0-1.6,2.7" transform="translate(0 0)"/><path class="cls-13" d="M107,252l6.6,1.9" transform="translate(0 0)"/><path class="cls-35" d="M50.1,183a6.87,6.87,0,0,1-.4,1.1,1,1,0,0,1-.8.6h-.3a.87.87,0,0,1-.3-.16,1,1,0,0,1-.2-.28.72.72,0,0,1-.07-.33.75.75,0,0,1,.07-.33c.1-.3,2.2-6.5,4.1-10.9a.78.78,0,0,1,.4-.4c0,1.2.1,2.3.2,3.5S50.7,181.21,50.1,183Z" transform="translate(0 0)"/><path class="cls-4" d="M143.5,247.31a7.18,7.18,0,0,0-.9-6.4,9.06,9.06,0,0,0-1.5-1.4,7.71,7.71,0,0,0-8.1.3c.6-3.4,1.4-9.6.8-14.3s-2.4-4.1-3.5-4.3c-3.2-.6-7.6,2.8-11.5,8.9-.7-3.3-1.7-4.9-3.3-5.3a2,2,0,0,0-2.2,1.1l-1.5,3.6c2-3,3.1-3,3.4-3s1.6.8,2.3,6.2a.81.81,0,0,0,.7.7,1,1,0,0,0,.56,0,1,1,0,0,0,.44-.35c4.1-7.5,8.5-10.5,10.8-10.1s1.9,1.7,2,2.9c.9,6.1-1.1,15.8-1.1,15.9a.92.92,0,0,0,.4.9,1.1,1.1,0,0,0,.56.1,1.14,1.14,0,0,0,.54-.2c2.2-2.3,5.6-2.9,7.7-1.5s3.1,6.5.8,12.8A40.07,40.07,0,0,0,143.5,247.31Z" transform="translate(0 0)"/><path class="cls-36" d="M126.9,206.41c3.4-1.9,4.6-3,7.6,0,4-2.1,4.8-2.1,7,1.1" transform="translate(0 0)"/><path d="M148.3,217.21c-.1-2.8-.4-7.1-.5-7.2a.75.75,0,0,0-.07-.33.6.6,0,0,0-.2-.27.66.66,0,0,0-.29-.17,1,1,0,0,0-.34,0,.75.75,0,0,0-.33.07.84.84,0,0,0-.44.49,1,1,0,0,0,0,.34c0,.1.4,4.4.4,7.2a.44.44,0,0,0,0,.16.39.39,0,0,0,.08.14h1.6Z" transform="translate(0 0)"/><path d="M149.4,213.81h-2.2a.8.8,0,0,1-.34-.07.81.81,0,0,1-.49-.49.77.77,0,0,1-.07-.34.91.91,0,0,1,.3-.57.88.88,0,0,1,.6-.23h2.2a.88.88,0,0,1,.6.23.87.87,0,0,1,.3.57.77.77,0,0,1-.07.34.81.81,0,0,1-.49.49A.77.77,0,0,1,149.4,213.81Z" transform="translate(0 0)"/><path class="cls-36" d="M118.2,271.71a44.34,44.34,0,0,0,6.3-.6" transform="translate(0 0)"/><path d="M54.2,293.51c-11.4-1.4-16.5-3.5-16.6-3.5h-.1v1.8c1.7.6,6.8,2.2,16.5,3.5h.1a.88.88,0,0,0,.6-.23.87.87,0,0,0,.3-.57,1,1,0,0,0,0-.35,1,1,0,0,0-.16-.32,1.18,1.18,0,0,0-.27-.23A1,1,0,0,0,54.2,293.51Z" transform="translate(0 0)"/><path class="cls-13" d="M96.6,288.91a15.87,15.87,0,0,0-6.7,4.2" transform="translate(0 0)"/><path class="cls-13" d="M133.4,297.21a94.11,94.11,0,0,0,11.7-6.2" transform="translate(0 0)"/><path class="cls-13" d="M135.4,296.31l5.3.2" transform="translate(0 0)"/><path class="cls-37" d="M32.3,229.71c16.6-1.6,28.4,2.2,44.7,9.5-16.3-1.1-35.5-1.7-35.5-1.7" transform="translate(0 0)"/><path class="cls-6" d="M27.8,311.81H94.4a3.59,3.59,0,0,1,3.6,3.6v43.3H24.2v-43.3a3.59,3.59,0,0,1,3.6-3.6Z" transform="translate(0 0)"/><path class="cls-24" d="M91.4,311.81h3a3.59,3.59,0,0,1,3.6,3.6v43.3H87.8v-43.3a3.65,3.65,0,0,1,.27-1.38,4,4,0,0,1,.78-1.17,3.8,3.8,0,0,1,1.17-.78A3.65,3.65,0,0,1,91.4,311.81Z" transform="translate(0 0)"/><path class="cls-24" d="M34,344.91H78a3,3,0,0,1,3,3v10.8H31.1v-10.8a3,3,0,0,1,2.9-3Z" transform="translate(0 0)"/><path class="cls-38" d="M36,311.81v46.9" transform="translate(0 0)"/><path class="cls-38" d="M75.9,311.81v46.9" transform="translate(0 0)"/><path d="M78.4,315.41H33.5a2.5,2.5,0,0,0-2.5,2.5v16a2.5,2.5,0,0,0,2.5,2.5H78.4a2.5,2.5,0,0,0,2.5-2.5v-16A2.5,2.5,0,0,0,78.4,315.41Z" transform="translate(0 0)"/><path class="cls-1" d="M86.9,318.81a.91.91,0,0,0-.4,0,1,1,0,0,0-.56.56.9.9,0,0,0,0,.4,1,1,0,0,0,.29.71,1.05,1.05,0,0,0,.71.29H98v-2Z" transform="translate(0 0)"/><path class="cls-1" d="M85.9,324.11a.91.91,0,0,0,0,.4,1,1,0,0,0,.56.56.91.91,0,0,0,.4,0H98v-2H86.9a1,1,0,0,0-.71.29A1.05,1.05,0,0,0,85.9,324.11Z" transform="translate(0 0)"/><path class="cls-1" d="M85.9,328.51a1,1,0,0,0,1,1H98v-2H86.9a.91.91,0,0,0-.4,0,1,1,0,0,0-.56.56A.91.91,0,0,0,85.9,328.51Z" transform="translate(0 0)"/><path class="cls-1" d="M26,319.81a1,1,0,0,1-.32.68,1.09,1.09,0,0,1-.68.32h-.8v-2H25a1,1,0,0,1,.71.29A1,1,0,0,1,26,319.81Z" transform="translate(0 0)"/><path class="cls-1" d="M26,324.11a1,1,0,0,1-1,1h-.8v-2H25a1.11,1.11,0,0,1,1,1Z" transform="translate(0 0)"/><path class="cls-1" d="M26,328.51a1.11,1.11,0,0,1-1,1h-.8v-2H25a1,1,0,0,1,1,1Z" transform="translate(0 0)"/><path class="cls-4" d="M65.6,316.91H36.3a1.3,1.3,0,0,0-1.3,1.3v13.85a1.3,1.3,0,0,0,1.3,1.3H65.6a1.3,1.3,0,0,0,1.3-1.3V318.21A1.3,1.3,0,0,0,65.6,316.91Z" transform="translate(0 0)"/><path class="cls-21" d="M78,333.41H70a.9.9,0,0,0-.9.9v1.22a.9.9,0,0,0,.9.9h8a.9.9,0,0,0,.9-.9v-1.22A.9.9,0,0,0,78,333.41Z" transform="translate(0 0)"/><path class="cls-5" d="M46.8,318.81a9.2,9.2,0,1,0,18.4,0,11,11,0,0,0-.2-1.9H47A5.81,5.81,0,0,0,46.8,318.81Z" transform="translate(0 0)"/><path class="cls-5" d="M37.7,333.41h15a9.19,9.19,0,0,0-15,0Z" transform="translate(0 0)"/><polyline class="cls-39" points="314.48 358.71 314.48 240.55 314.48 226.81 314.48 222.81 314.48 218.81 314.48 204.45 314.48 198.12 314.48 197.22 314.48 187.7 314.48 182.53 314.48 175.33 314.48 162.73 314.48 161.55 314.48 160.37 314.48 153.51 314.48 117 314.48 115.11 314.48 114.11 314.48 113.11 314.48 106.19 314.48 98.25 314.48 92.64 314.48 88 314.48 19.35 314.48 4.28 314.48 1.4 314.48 0"/></g></g></svg>